<svg version="1.1" id="Layer_1" xmlns="http://www.w3.org/2000/svg" xmlns:xlink="http://www.w3.org/1999/xlink" x="0px" y="0px"
	 width="100%" viewBox="0 0 1596 510" enable-background="new 0 0 1596 510" xml:space="preserve">
<path fill="#000000" opacity="1.000000" stroke="none" 
	d="
M1006.000000,511.000000 
	C670.706360,511.000000 335.912689,511.000000 1.059514,511.000000 
	C1.059514,341.059845 1.059514,171.119644 1.059514,1.089730 
	C532.877136,1.089730 1064.754272,1.089730 1596.815674,1.089730 
	C1596.815674,170.999847 1596.815674,340.999908 1596.815674,511.000000 
	C1400.119385,511.000000 1203.309692,511.000000 1006.000000,511.000000 
M268.500000,477.000977 
	C391.922302,477.000977 515.344604,477.000977 639.000916,477.000977 
	C639.000916,475.134430 639.000916,473.825134 639.000916,472.515839 
	C639.000977,451.683929 638.990540,430.852051 639.016296,410.020172 
	C639.018982,407.807037 638.266174,405.005005 642.033142,405.003571 
	C649.987183,405.000519 657.941284,405.002625 666.123962,405.002625 
	C665.428528,409.742401 666.014038,412.134766 671.555176,412.131439 
	C923.537781,411.981049 1175.520508,411.989716 1427.503174,412.092621 
	C1431.947510,412.094421 1433.095947,410.807007 1433.090210,406.446899 
	C1432.971680,316.119934 1433.001953,225.792770 1432.991089,135.465637 
	C1432.990845,134.032669 1432.843628,132.599747 1432.755859,130.999008 
	C1430.585693,130.999008 1428.770630,130.999008 1426.955566,130.999008 
	C1176.139404,130.999008 925.323303,131.000092 674.507202,130.995163 
	C664.318359,130.994965 666.179749,130.548843 665.926514,139.037643 
	C665.918823,139.295410 665.593872,139.543732 665.486694,139.696732 
	C656.661560,139.696732 647.921387,139.696732 638.790771,139.696732 
	C638.790771,111.323326 638.790771,83.250496 638.790771,55.294456 
	C458.661377,55.294456 278.931396,55.294456 99.288025,55.294456 
	C99.288025,195.988663 99.288025,336.387207 99.288025,477.000977 
	C155.551178,477.000977 211.525589,477.000977 268.500000,477.000977 
z"/>
<path fill="#FEFEFE" opacity="1.000000" stroke="none" 
	d="
M268.000000,477.000977 
	C211.525589,477.000977 155.551178,477.000977 99.288025,477.000977 
	C99.288025,336.387207 99.288025,195.988663 99.288025,55.294456 
	C278.931396,55.294456 458.661377,55.294456 638.790771,55.294456 
	C638.790771,83.250496 638.790771,111.323326 638.790771,139.696732 
	C647.921387,139.696732 656.661560,139.696732 665.486694,139.696732 
	C665.593872,139.543732 665.918823,139.295410 665.926514,139.037643 
	C666.179749,130.548843 664.318359,130.994965 674.507202,130.995163 
	C925.323303,131.000092 1176.139404,130.999008 1426.955566,130.999008 
	C1428.770630,130.999008 1430.585693,130.999008 1432.755859,130.999008 
	C1432.843628,132.599747 1432.990845,134.032669 1432.991089,135.465637 
	C1433.001953,225.792770 1432.971680,316.119934 1433.090210,406.446899 
	C1433.095947,410.807007 1431.947510,412.094421 1427.503174,412.092621 
	C1175.520508,411.989716 923.537781,411.981049 671.555176,412.131439 
	C666.014038,412.134766 665.428528,409.742401 666.123962,405.002625 
	C657.941284,405.002625 649.987183,405.000519 642.033142,405.003571 
	C638.266174,405.005005 639.018982,407.807037 639.016296,410.020172 
	C638.990540,430.852051 639.000977,451.683929 639.000916,472.515839 
	C639.000916,473.825134 639.000916,475.134430 639.000916,477.000977 
	C515.344604,477.000977 391.922302,477.000977 268.000000,477.000977 
M205.258102,302.082031 
	C194.144531,305.392365 183.013412,308.646088 171.937973,312.079498 
	C170.432983,312.546021 169.206741,313.911774 167.851456,314.861176 
	C168.866608,316.247589 169.853500,317.656250 170.915466,319.005859 
	C171.204178,319.372803 171.719208,319.561615 172.066376,320.788452 
	C172.097580,341.273193 172.128799,361.757935 171.543839,382.598572 
	C170.792740,382.951233 169.790558,383.111725 169.342911,383.696625 
	C168.418579,384.904388 167.101151,386.425964 167.257050,387.651642 
	C167.382156,388.635284 169.363480,389.531860 170.666901,390.168579 
	C171.680069,390.663544 172.914886,390.714539 174.056488,390.935455 
	C245.506500,404.761902 316.946472,418.641083 388.435883,432.260773 
	C392.407562,433.017426 397.147766,432.552063 400.925568,431.091522 
	C454.082642,410.540100 507.139313,389.728943 560.188904,368.900696 
	C561.736206,368.293243 563.544861,367.094635 564.209839,365.688385 
	C572.051575,349.106140 573.349243,332.225464 566.724243,314.891144 
	C568.956543,314.342285 571.247925,313.955780 573.395447,313.173981 
	C574.420227,312.800842 575.879395,311.680908 575.884155,310.891632 
	C575.891724,309.645874 575.131531,308.036804 574.157532,307.240540 
	C573.098511,306.374817 571.424133,306.261841 570.007324,304.905914 
	C570.013489,285.044037 570.019592,265.182190 570.715393,245.086029 
	C572.331177,243.641815 573.946960,242.197601 575.562744,240.753372 
	C573.819946,239.729553 572.192261,238.355667 570.315735,237.738205 
	C557.272888,233.446472 544.178406,229.311737 531.724304,224.769730 
	C542.876770,220.441422 554.087585,216.253326 565.131653,211.664291 
	C567.290955,210.767075 569.568665,208.649841 570.497253,206.528610 
	C579.980347,184.865936 577.735352,164.129242 565.136597,144.272293 
	C563.192139,141.207550 560.762756,139.670166 557.239563,139.032684 
	C517.498230,131.841934 477.775177,124.550308 437.246674,117.053185 
	C412.029053,112.383675 386.828735,107.616173 361.575684,103.146873 
	C357.641144,102.450531 353.200653,102.199898 349.442932,103.290131 
	C310.647430,114.545929 271.948181,126.133308 233.213623,137.599548 
	C214.482651,143.144272 195.725494,148.600784 177.008698,154.192627 
	C175.576736,154.620453 173.233658,155.906921 173.295471,156.623352 
	C173.429565,158.177963 174.740631,159.703033 175.789017,161.072922 
	C176.236923,161.658173 177.231079,161.825378 177.990768,163.096848 
	C177.978149,183.595047 177.965530,204.093246 177.267960,224.864594 
	C175.570435,226.400101 173.872894,227.935593 172.175369,229.471100 
	C173.894852,230.643021 175.626266,231.798080 177.324753,232.999710 
	C177.707947,233.270798 177.976425,233.704025 178.096695,234.776642 
	C170.351913,251.789520 169.760391,268.960144 176.921127,286.318481 
	C178.145599,289.286713 179.699020,291.284760 183.193283,292.468262 
	C190.960602,295.099060 198.410568,298.666870 205.258102,302.082031 
M689.832886,286.282745 
	C696.323853,282.325409 703.269287,278.940186 709.176392,274.247833 
	C714.939636,269.669678 716.035889,260.204620 712.928040,253.032578 
	C709.921997,246.095459 703.982666,243.943634 697.065430,244.092972 
	C692.938843,244.182053 688.656250,244.461609 684.746521,245.650833 
	C676.396851,248.190567 668.244202,251.377792 659.597595,254.446396 
	C660.525452,248.798645 661.817810,243.107697 662.296875,237.349106 
	C662.703003,232.468567 665.242676,230.623367 669.469421,228.739120 
	C684.921326,221.850845 700.247742,214.640640 715.329773,206.977631 
	C724.714661,202.209259 728.055298,193.829208 725.351074,185.018936 
	C722.378906,175.336060 715.064331,169.960175 704.554993,171.083542 
	C682.843018,173.404404 661.546692,177.763962 641.132263,185.846283 
	C635.582764,188.043396 631.127747,191.525177 629.000244,196.995911 
	C625.647217,205.618301 622.011169,214.297974 620.126648,223.295166 
	C611.998657,262.101379 614.907166,301.159973 618.179688,340.234039 
	C619.131226,351.596191 625.109985,358.528107 634.545227,363.402008 
	C637.783386,365.074677 641.127380,366.564148 644.499817,367.950439 
	C650.080078,370.244324 655.866455,370.846649 661.540283,368.552795 
	C675.980103,362.715057 690.519348,357.068634 704.650574,350.547607 
	C710.881958,347.672058 716.636414,343.339661 721.854614,338.802856 
	C727.899353,333.547455 728.503113,324.861938 724.490723,317.223724 
	C720.687927,309.984375 713.821045,306.035400 705.939331,307.817688 
	C694.945496,310.303650 684.118774,313.542938 673.255371,316.584137 
	C669.187561,317.722961 665.217285,319.210541 659.944580,320.955322 
	C659.944580,313.632599 659.667725,307.224274 660.130554,300.869873 
	C660.253052,299.187805 662.341919,296.916443 664.060669,296.207642 
	C672.338379,292.793976 680.798279,289.822266 689.832886,286.282745 
M1255.078735,298.499969 
	C1255.385010,309.817108 1255.078613,321.194763 1256.189209,332.432404 
	C1257.095947,341.605377 1258.704590,350.964874 1261.789795,359.603149 
	C1265.838501,370.939667 1276.535156,371.988007 1284.111084,362.418518 
	C1286.466675,359.443054 1287.853149,355.700378 1289.753174,352.179230 
	C1290.271851,352.723389 1290.867554,353.293610 1291.401489,353.916718 
	C1310.328491,376.003265 1338.786377,374.578979 1355.282471,350.807831 
	C1365.702271,335.792542 1370.341064,318.728973 1372.802734,301.006134 
	C1375.302612,283.009277 1374.898560,265.227478 1367.336670,248.130600 
	C1358.287109,227.669922 1339.536621,221.030212 1319.698853,231.444656 
	C1310.944214,236.040619 1303.875122,242.413162 1298.090088,251.548767 
	C1298.090088,245.974457 1298.273315,241.499496 1298.055176,237.044205 
	C1297.445068,224.589340 1297.095459,212.098557 1295.816650,199.707260 
	C1294.877808,190.610718 1292.443359,181.698120 1286.354980,174.382523 
	C1281.321045,168.333939 1272.602173,168.190964 1267.787964,174.402328 
	C1265.291870,177.622681 1262.989136,181.391235 1261.966797,185.272415 
	C1259.818359,193.427368 1257.480347,201.777557 1257.154419,210.123169 
	C1256.017822,239.231369 1255.705444,268.371765 1255.078735,298.499969 
M810.087646,192.621658 
	C809.193787,208.074402 808.299927,223.527130 807.331665,240.265961 
	C806.015442,238.464157 805.554626,237.824387 805.084778,237.191330 
	C789.429504,216.097412 762.767395,217.108734 748.808655,239.399139 
	C740.400024,252.826767 737.090515,267.907166 735.507812,283.371002 
	C732.786499,309.960571 737.959167,334.742188 754.374329,356.330872 
	C766.278870,371.987335 784.952271,374.184814 800.443054,361.997528 
	C805.097412,358.335785 808.895020,353.585205 812.616089,349.809418 
	C814.984070,353.505768 817.019592,358.010193 820.221436,361.419128 
	C828.161011,369.872437 839.911499,367.366302 844.170349,356.661346 
	C844.961792,354.671936 845.873230,352.572418 845.966736,350.489441 
	C846.472900,339.220734 846.985718,327.942413 847.038513,316.665222 
	C847.162292,290.246826 846.899231,263.826538 847.041016,237.408310 
	C847.131104,220.624252 848.010986,203.838226 847.799500,187.062393 
	C847.732971,181.783493 845.918213,176.250732 843.753784,171.341019 
	C840.755371,164.539627 834.656311,162.202087 827.329285,162.449066 
	C820.284973,162.686523 816.087646,166.759476 814.161072,172.782791 
	C812.207703,178.890045 811.433105,185.374298 810.087646,192.621658 
M1016.511597,173.838135 
	C1010.025269,180.978119 1007.136719,189.878113 1005.046997,198.921494 
	C995.004395,242.382492 993.140076,286.575653 994.567261,330.926300 
	C994.887695,340.885193 997.623657,350.878754 1000.190186,360.607697 
	C1001.569946,365.837891 1004.749695,370.672424 1011.437195,371.100250 
	C1018.659546,371.562317 1024.255371,368.805084 1027.507202,362.437714 
	C1029.823853,357.901489 1032.132568,353.050659 1032.902954,348.100281 
	C1034.484009,337.942139 1034.952271,327.614716 1036.025635,317.372406 
	C1036.906616,308.963470 1037.308228,300.417358 1039.195923,292.225494 
	C1041.040649,284.219696 1049.180054,280.210663 1059.074829,280.909760 
	C1064.483521,281.291901 1067.038574,284.605835 1068.764526,293.513397 
	C1068.922363,294.328125 1069.039917,295.161194 1069.066162,295.989258 
	C1069.477905,308.956848 1069.755859,321.929901 1070.305908,334.891449 
	C1070.749634,345.349060 1071.076660,355.892700 1076.063965,365.497314 
	C1080.847168,374.708832 1093.231567,376.030426 1099.067261,367.540558 
	C1101.879517,363.449432 1104.042114,358.407166 1104.844482,353.523773 
	C1109.049805,327.931122 1108.599609,302.083740 1107.674194,276.287628 
	C1107.421265,269.233307 1105.931396,262.058716 1103.914185,255.264374 
	C1098.668579,237.596069 1085.160522,230.257065 1067.194702,234.645615 
	C1056.908325,237.158295 1048.652222,242.983505 1041.286621,250.968536 
	C1041.286621,248.698059 1041.296753,246.939728 1041.285034,245.181549 
	C1041.197754,232.045074 1041.914307,218.835831 1040.739502,205.797104 
	C1039.918457,196.684891 1037.254517,187.528412 1034.045288,178.900650 
	C1030.815918,170.218552 1024.159302,168.593918 1016.511597,173.838135 
M976.205139,280.208862 
	C975.414246,274.108093 975.009949,267.926025 973.748108,261.924255 
	C971.459900,251.040771 969.161865,240.049011 961.461731,231.311279 
	C954.620300,223.548035 944.305664,223.637558 937.691040,231.626068 
	C932.864075,237.455566 931.497131,244.249023 932.359619,251.739426 
	C933.920349,265.292755 935.614746,278.852753 936.455566,292.459290 
	C937.038269,301.888519 936.741821,311.488251 932.272095,320.273010 
	C928.809204,327.079102 922.467590,330.775391 915.701050,329.878479 
	C908.786804,328.962006 906.379272,323.657318 904.537903,317.921936 
	C904.234253,316.976135 903.852661,315.984344 903.865723,315.018646 
	C904.025085,303.243500 903.877075,291.447388 904.562927,279.700745 
	C905.288086,267.281799 907.390808,254.925568 907.726685,242.510422 
	C907.861023,237.542999 905.665649,232.050766 903.147522,227.575836 
	C898.789551,219.831131 889.265991,219.359299 883.420776,226.052734 
	C881.135803,228.669205 878.867249,231.454376 877.308167,234.526581 
	C860.863708,266.930878 858.017395,300.742676 869.262024,335.118561 
	C875.594666,354.477692 889.417542,366.799194 910.428162,369.703613 
	C939.131409,373.671387 962.108582,359.507721 971.151367,331.916809 
	C976.566406,315.394928 977.825500,298.383606 976.205139,280.208862 
M1186.895386,327.696564 
	C1176.031494,332.562500 1168.431763,329.761383 1166.118408,318.310669 
	C1164.270752,309.166595 1164.048828,299.468872 1164.634277,290.112549 
	C1165.463989,276.853119 1168.029785,263.711060 1169.210205,250.461502 
	C1169.920654,242.487320 1169.218140,234.445572 1164.431152,227.437759 
	C1159.398804,220.070938 1150.161011,219.218506 1144.567505,226.136398 
	C1140.844360,230.741348 1137.353027,235.807587 1135.012939,241.210892 
	C1123.640015,267.472626 1121.256836,294.784332 1126.707764,322.814575 
	C1128.899170,334.083588 1133.383911,344.284149 1140.644165,353.307526 
	C1161.218872,378.878815 1216.931396,378.604492 1231.923218,333.245453 
	C1239.253418,311.067108 1239.457764,288.420441 1235.542358,265.624786 
	C1233.710938,254.962677 1231.397949,244.381683 1225.529419,235.041580 
	C1218.571655,223.967667 1206.730835,222.379074 1198.978760,231.417877 
	C1194.656128,236.458008 1192.772705,242.465866 1193.252075,248.996643 
	C1193.702271,255.130203 1195.105103,261.200684 1195.440796,267.334381 
	C1196.176025,280.766357 1196.926514,294.223877 1196.827637,307.664764 
	C1196.771606,315.255585 1194.087891,322.369385 1186.895386,327.696564 
z"/>
<path fill="#48AD96" opacity="1.000000" stroke="none" 
	d="
M178.297714,234.062607 
	C177.976425,233.704025 177.707947,233.270798 177.324753,232.999710 
	C175.626266,231.798080 173.894852,230.643021 172.175354,229.471100 
	C173.872894,227.935593 175.570435,226.400101 178.047943,224.802567 
	C196.663620,227.958817 214.516953,231.082657 232.331650,234.413162 
	C284.966522,244.253372 337.582855,254.192535 390.214478,264.050110 
	C400.231415,265.926178 400.692993,265.600037 404.662842,256.340363 
	C404.990326,255.576569 405.275879,254.794128 405.562988,254.013763 
	C412.524414,235.092499 408.455566,217.321564 399.736725,200.123581 
	C399.161743,198.989471 397.145966,198.226089 395.678284,197.957733 
	C369.834412,193.232269 344.028412,188.261124 318.100189,184.044266 
	C273.128265,176.730240 228.078171,169.896881 183.245239,162.539352 
	C190.004669,160.822525 196.541870,159.206863 203.161880,158.075958 
	C222.386276,154.791809 241.651566,151.747879 260.886261,148.522919 
	C279.469543,145.407196 298.031952,142.167465 316.608521,139.011490 
	C337.465454,135.468124 358.323273,131.929871 379.189545,128.441971 
	C394.350372,125.907761 409.544708,123.568336 424.682495,120.905319 
	C429.209564,120.108932 433.596252,118.514542 438.047241,117.285751 
	C477.775177,124.550308 517.498230,131.841934 557.239563,139.032684 
	C560.762756,139.670166 563.192139,141.207550 565.136597,144.272293 
	C577.735352,164.129242 579.980347,184.865936 570.497253,206.528610 
	C569.568665,208.649841 567.290955,210.767075 565.131653,211.664291 
	C554.087585,216.253326 542.876770,220.441422 531.044006,224.971924 
	C501.190826,236.613464 472.001648,248.011429 442.854553,259.516083 
	C433.502533,263.207428 424.261719,267.180481 414.980286,271.002441 
	C414.990570,270.980255 415.038391,270.990662 414.703003,270.946808 
	C413.579163,271.247101 412.790680,271.591248 411.637085,272.018433 
	C405.521515,274.336670 399.846954,277.041687 393.059357,274.743530 
	C352.577393,266.694244 312.448700,258.841522 272.296509,251.110687 
	C262.527405,249.229782 252.681168,247.749603 242.482727,246.045959 
	C237.291260,244.805862 232.530594,243.380798 227.675430,242.447052 
	C214.162674,239.848267 200.610718,237.453430 186.741501,234.809616 
	C183.705078,234.448318 181.001404,234.255463 178.297714,234.062607 
M417.977966,227.758194 
	C418.945770,240.721085 415.171478,252.762283 409.707886,265.218567 
	C411.629059,264.596710 412.416138,264.377960 413.177155,264.090332 
	C430.740479,257.451965 448.334686,250.892120 465.810760,244.031387 
	C467.598053,243.329742 469.288940,241.038696 469.985413,239.109924 
	C477.078369,219.466522 475.170685,200.245850 466.514343,181.551178 
	C465.940735,180.312393 463.199371,178.929047 461.992249,179.304398 
	C444.281189,184.811707 426.659546,190.606644 409.845276,196.064178 
	C412.675842,206.807144 415.313843,216.819244 417.977966,227.758194 
z"/>
<path fill="#010101" opacity="1.000000" stroke="none" 
	d="
M689.513184,286.488220 
	C680.798279,289.822266 672.338379,292.793976 664.060669,296.207642 
	C662.341919,296.916443 660.253052,299.187805 660.130554,300.869873 
	C659.667725,307.224274 659.944580,313.632599 659.944580,320.955322 
	C665.217285,319.210541 669.187561,317.722961 673.255371,316.584137 
	C684.118774,313.542938 694.945496,310.303650 705.939331,307.817688 
	C713.821045,306.035400 720.687927,309.984375 724.490723,317.223724 
	C728.503113,324.861938 727.899353,333.547455 721.854614,338.802856 
	C716.636414,343.339661 710.881958,347.672058 704.650574,350.547607 
	C690.519348,357.068634 675.980103,362.715057 661.540283,368.552795 
	C655.866455,370.846649 650.080078,370.244324 644.499817,367.950439 
	C641.127380,366.564148 637.783386,365.074677 634.545227,363.402008 
	C625.109985,358.528107 619.131226,351.596191 618.179688,340.234039 
	C614.907166,301.159973 611.998657,262.101379 620.126648,223.295166 
	C622.011169,214.297974 625.647217,205.618301 629.000244,196.995911 
	C631.127747,191.525177 635.582764,188.043396 641.132263,185.846283 
	C661.546692,177.763962 682.843018,173.404404 704.554993,171.083542 
	C715.064331,169.960175 722.378906,175.336060 725.351074,185.018936 
	C728.055298,193.829208 724.714661,202.209259 715.329773,206.977631 
	C700.247742,214.640640 684.921326,221.850845 669.469421,228.739120 
	C665.242676,230.623367 662.703003,232.468567 662.296875,237.349106 
	C661.817810,243.107697 660.525452,248.798645 659.597595,254.446396 
	C668.244202,251.377792 676.396851,248.190567 684.746521,245.650833 
	C688.656250,244.461609 692.938843,244.182053 697.065430,244.092972 
	C703.982666,243.943634 709.921997,246.095459 712.928040,253.032578 
	C716.035889,260.204620 714.939636,269.669678 709.176392,274.247833 
	C703.269287,278.940186 696.323853,282.325409 689.513184,286.488220 
z"/>
<path fill="#010101" opacity="1.000000" stroke="none" 
	d="
M1255.079224,297.999939 
	C1255.705444,268.371765 1256.017822,239.231369 1257.154419,210.123169 
	C1257.480347,201.777557 1259.818359,193.427368 1261.966797,185.272415 
	C1262.989136,181.391235 1265.291870,177.622681 1267.787964,174.402328 
	C1272.602173,168.190964 1281.321045,168.333939 1286.354980,174.382523 
	C1292.443359,181.698120 1294.877808,190.610718 1295.816650,199.707260 
	C1297.095459,212.098557 1297.445068,224.589340 1298.055176,237.044205 
	C1298.273315,241.499496 1298.090088,245.974457 1298.090088,251.548767 
	C1303.875122,242.413162 1310.944214,236.040619 1319.698853,231.444656 
	C1339.536621,221.030212 1358.287109,227.669922 1367.336670,248.130600 
	C1374.898560,265.227478 1375.302612,283.009277 1372.802734,301.006134 
	C1370.341064,318.728973 1365.702271,335.792542 1355.282471,350.807831 
	C1338.786377,374.578979 1310.328491,376.003265 1291.401489,353.916718 
	C1290.867554,353.293610 1290.271851,352.723389 1289.753174,352.179230 
	C1287.853149,355.700378 1286.466675,359.443054 1284.111084,362.418518 
	C1276.535156,371.988007 1265.838501,370.939667 1261.789795,359.603149 
	C1258.704590,350.964874 1257.095947,341.605377 1256.189209,332.432404 
	C1255.078613,321.194763 1255.385010,309.817108 1255.079224,297.999939 
M1302.636108,318.958160 
	C1306.122437,320.375977 1309.516846,322.115784 1313.114502,323.144226 
	C1320.457397,325.243164 1326.389282,322.635254 1330.087402,316.187592 
	C1336.799194,304.486176 1338.700928,291.841583 1335.055542,278.801758 
	C1332.814209,270.784424 1327.268799,268.340942 1319.208618,270.686951 
	C1310.665894,273.173340 1304.228760,278.832825 1299.346924,285.738159 
	C1296.913208,289.180664 1296.925049,294.361877 1295.878052,298.767853 
	C1295.610229,299.894440 1295.636719,301.095093 1295.332520,302.208252 
	C1293.369873,309.390747 1295.613403,314.808014 1302.636108,318.958160 
z"/>
<path fill="#F1F2F2" opacity="1.000000" stroke="none" 
	d="
M183.060852,162.861969 
	C228.078171,169.896881 273.128265,176.730240 318.100189,184.044266 
	C344.028412,188.261124 369.834412,193.232269 395.678284,197.957733 
	C397.145966,198.226089 399.161743,198.989471 399.736725,200.123581 
	C408.455566,217.321564 412.524414,235.092499 405.562988,254.013763 
	C405.275879,254.794128 404.990326,255.576569 404.662842,256.340363 
	C400.692993,265.600037 400.231415,265.926178 390.214478,264.050110 
	C337.582855,254.192535 284.966522,244.253372 232.331650,234.413162 
	C214.516953,231.082657 196.663620,227.958817 178.390442,224.665985 
	C177.965530,204.093246 177.978149,183.595047 178.354034,162.626495 
	C180.165146,162.391434 181.612991,162.626709 183.060852,162.861969 
z"/>
<path fill="#020202" opacity="1.000000" stroke="none" 
	d="
M810.114868,192.157532 
	C811.433105,185.374298 812.207703,178.890045 814.161072,172.782791 
	C816.087646,166.759476 820.284973,162.686523 827.329285,162.449066 
	C834.656311,162.202087 840.755371,164.539627 843.753784,171.341019 
	C845.918213,176.250732 847.732971,181.783493 847.799500,187.062393 
	C848.010986,203.838226 847.131104,220.624252 847.041016,237.408310 
	C846.899231,263.826538 847.162292,290.246826 847.038513,316.665222 
	C846.985718,327.942413 846.472900,339.220734 845.966736,350.489441 
	C845.873230,352.572418 844.961792,354.671936 844.170349,356.661346 
	C839.911499,367.366302 828.161011,369.872437 820.221436,361.419128 
	C817.019592,358.010193 814.984070,353.505768 812.616089,349.809418 
	C808.895020,353.585205 805.097412,358.335785 800.443054,361.997528 
	C784.952271,374.184814 766.278870,371.987335 754.374329,356.330872 
	C737.959167,334.742188 732.786499,309.960571 735.507812,283.371002 
	C737.090515,267.907166 740.400024,252.826767 748.808655,239.399139 
	C762.767395,217.108734 789.429504,216.097412 805.084778,237.191330 
	C805.554626,237.824387 806.015442,238.464157 807.331665,240.265961 
	C808.299927,223.527130 809.193787,208.074402 810.114868,192.157532 
M806.499146,293.376404 
	C805.336731,281.734222 799.305908,273.189514 789.194946,267.795288 
	C783.090637,264.538666 776.530762,266.904114 773.840271,273.254578 
	C772.070129,277.432709 771.083069,282.155457 770.783264,286.702759 
	C769.968140,299.066742 770.919312,311.294556 776.069519,322.828217 
	C777.643799,326.353729 779.949463,329.228638 784.310303,328.831970 
	C792.684265,328.070312 798.247681,322.564392 804.078308,317.248077 
	C807.744080,313.905640 806.698914,310.008392 806.784363,306.175568 
	C806.873047,302.192505 806.607361,298.201599 806.499146,293.376404 
z"/>
<path fill="#DAD9D7" opacity="1.000000" stroke="none" 
	d="
M172.160004,382.242676 
	C172.128799,361.757935 172.097580,341.273193 172.516907,320.346436 
	C192.294601,322.683502 211.643234,325.322296 230.943405,328.277710 
	C254.321976,331.857666 277.659576,335.705292 301.335846,339.615051 
	C304.211792,340.412079 306.873291,340.755981 309.303650,341.696899 
	C320.899567,346.186249 332.386780,350.960052 344.025299,355.332703 
	C346.475311,356.253204 349.473328,356.432007 352.090240,356.056519 
	C359.781403,354.952911 367.407928,353.398621 375.334717,352.282928 
	C395.616241,355.920898 396.003845,356.146118 401.340088,375.699585 
	C405.476166,390.855316 404.501282,405.510803 396.530304,419.446136 
	C394.621155,422.783844 392.238739,423.658600 388.761078,422.991669 
	C379.336182,421.184265 369.899078,419.440308 360.468445,417.662872 
	C331.042236,412.116791 301.618774,406.556152 272.190491,401.021271 
	C238.849121,394.750366 205.503677,388.501282 172.160004,382.242676 
z"/>
<path fill="#F2F2F1" opacity="1.000000" stroke="none" 
	d="
M393.403961,274.984924 
	C399.846954,277.041687 405.521515,274.336670 411.983612,272.039490 
	C413.476349,271.648560 414.257355,271.319611 415.038391,270.990662 
	C415.038391,270.990662 414.990570,270.980255 415.414978,271.104431 
	C430.416473,268.838928 445.003052,266.505890 459.568665,264.048401 
	C496.392731,257.835510 533.207336,251.566711 570.025757,245.320312 
	C570.019592,265.182190 570.013489,285.044037 569.575317,305.423096 
	C564.726990,306.638672 560.280396,307.185333 555.898865,308.058380 
	C499.923828,319.212006 443.964874,330.446564 387.985077,341.576141 
	C374.314789,344.293976 360.583740,346.706238 346.929443,348.807922 
	C347.307129,346.402222 347.857849,344.455811 347.930603,342.491730 
	C348.666718,322.613770 349.324799,302.732880 350.402954,282.825012 
	C354.027191,282.199280 357.252075,281.595245 360.479370,281.004456 
	C371.453766,278.995422 382.429047,276.991058 393.403961,274.984924 
z"/>
<path fill="#020202" opacity="1.000000" stroke="none" 
	d="
M1016.777466,173.565521 
	C1024.159302,168.593918 1030.815918,170.218552 1034.045288,178.900650 
	C1037.254517,187.528412 1039.918457,196.684891 1040.739502,205.797104 
	C1041.914307,218.835831 1041.197754,232.045074 1041.285034,245.181549 
	C1041.296753,246.939728 1041.286621,248.698059 1041.286621,250.968536 
	C1048.652222,242.983505 1056.908325,237.158295 1067.194702,234.645615 
	C1085.160522,230.257065 1098.668579,237.596069 1103.914185,255.264374 
	C1105.931396,262.058716 1107.421265,269.233307 1107.674194,276.287628 
	C1108.599609,302.083740 1109.049805,327.931122 1104.844482,353.523773 
	C1104.042114,358.407166 1101.879517,363.449432 1099.067261,367.540558 
	C1093.231567,376.030426 1080.847168,374.708832 1076.063965,365.497314 
	C1071.076660,355.892700 1070.749634,345.349060 1070.305908,334.891449 
	C1069.755859,321.929901 1069.477905,308.956848 1069.066162,295.989258 
	C1069.039917,295.161194 1068.922363,294.328125 1068.764526,293.513397 
	C1067.038574,284.605835 1064.483521,281.291901 1059.074829,280.909760 
	C1049.180054,280.210663 1041.040649,284.219696 1039.195923,292.225494 
	C1037.308228,300.417358 1036.906616,308.963470 1036.025635,317.372406 
	C1034.952271,327.614716 1034.484009,337.942139 1032.902954,348.100281 
	C1032.132568,353.050659 1029.823853,357.901489 1027.507202,362.437714 
	C1024.255371,368.805084 1018.659546,371.562317 1011.437195,371.100250 
	C1004.749695,370.672424 1001.569946,365.837891 1000.190186,360.607697 
	C997.623657,350.878754 994.887695,340.885193 994.567261,330.926300 
	C993.140076,286.575653 995.004395,242.382492 1005.046997,198.921494 
	C1007.136719,189.878113 1010.025269,180.978119 1016.777466,173.565521 
z"/>
<path fill="#5679AD" opacity="1.000000" stroke="none" 
	d="
M171.851929,382.420624 
	C205.503677,388.501282 238.849121,394.750366 272.190491,401.021271 
	C301.618774,406.556152 331.042236,412.116791 360.468445,417.662872 
	C369.899078,419.440308 379.336182,421.184265 388.761078,422.991669 
	C392.238739,423.658600 394.621155,422.783844 396.530304,419.446136 
	C404.501282,405.510803 405.476166,390.855316 401.340088,375.699585 
	C396.003845,356.146118 395.616241,355.920898 375.713287,352.190582 
	C376.450500,351.633270 377.071075,351.362885 377.719666,351.237244 
	C417.463959,343.536224 457.204651,335.816498 496.959137,328.168457 
	C519.943298,323.746735 542.950012,319.442230 565.946594,315.084961 
	C573.349243,332.225464 572.051575,349.106140 564.209839,365.688385 
	C563.544861,367.094635 561.736206,368.293243 560.188904,368.900696 
	C507.139313,389.728943 454.082642,410.540100 400.925568,431.091522 
	C397.147766,432.552063 392.407562,433.017426 388.435883,432.260773 
	C316.946472,418.641083 245.506500,404.761902 174.056488,390.935455 
	C172.914886,390.714539 171.680069,390.663544 170.666901,390.168579 
	C169.363480,389.531860 167.382156,388.635284 167.257050,387.651642 
	C167.101151,386.425964 168.418579,384.904388 169.342911,383.696625 
	C169.790558,383.111725 170.792740,382.951233 171.851929,382.420624 
z"/>
<path fill="#020202" opacity="1.000000" stroke="none" 
	d="
M976.253296,280.666260 
	C977.825500,298.383606 976.566406,315.394928 971.151367,331.916809 
	C962.108582,359.507721 939.131409,373.671387 910.428162,369.703613 
	C889.417542,366.799194 875.594666,354.477692 869.262024,335.118561 
	C858.017395,300.742676 860.863708,266.930878 877.308167,234.526581 
	C878.867249,231.454376 881.135803,228.669205 883.420776,226.052734 
	C889.265991,219.359299 898.789551,219.831131 903.147522,227.575836 
	C905.665649,232.050766 907.861023,237.542999 907.726685,242.510422 
	C907.390808,254.925568 905.288086,267.281799 904.562927,279.700745 
	C903.877075,291.447388 904.025085,303.243500 903.865723,315.018646 
	C903.852661,315.984344 904.234253,316.976135 904.537903,317.921936 
	C906.379272,323.657318 908.786804,328.962006 915.701050,329.878479 
	C922.467590,330.775391 928.809204,327.079102 932.272095,320.273010 
	C936.741821,311.488251 937.038269,301.888519 936.455566,292.459290 
	C935.614746,278.852753 933.920349,265.292755 932.359619,251.739426 
	C931.497131,244.249023 932.864075,237.455566 937.691040,231.626068 
	C944.305664,223.637558 954.620300,223.548035 961.461731,231.311279 
	C969.161865,240.049011 971.459900,251.040771 973.748108,261.924255 
	C975.009949,267.926025 975.414246,274.108093 976.253296,280.666260 
z"/>
<path fill="#020202" opacity="1.000000" stroke="none" 
	d="
M1187.186523,327.453247 
	C1194.087891,322.369385 1196.771606,315.255585 1196.827637,307.664764 
	C1196.926514,294.223877 1196.176025,280.766357 1195.440796,267.334381 
	C1195.105103,261.200684 1193.702271,255.130203 1193.252075,248.996643 
	C1192.772705,242.465866 1194.656128,236.458008 1198.978760,231.417877 
	C1206.730835,222.379074 1218.571655,223.967667 1225.529419,235.041580 
	C1231.397949,244.381683 1233.710938,254.962677 1235.542358,265.624786 
	C1239.457764,288.420441 1239.253418,311.067108 1231.923218,333.245453 
	C1216.931396,378.604492 1161.218872,378.878815 1140.644165,353.307526 
	C1133.383911,344.284149 1128.899170,334.083588 1126.707764,322.814575 
	C1121.256836,294.784332 1123.640015,267.472626 1135.012939,241.210892 
	C1137.353027,235.807587 1140.844360,230.741348 1144.567505,226.136398 
	C1150.161011,219.218506 1159.398804,220.070938 1164.431152,227.437759 
	C1169.218140,234.445572 1169.920654,242.487320 1169.210205,250.461502 
	C1168.029785,263.711060 1165.463989,276.853119 1164.634277,290.112549 
	C1164.048828,299.468872 1164.270752,309.166595 1166.118408,318.310669 
	C1168.431763,329.761383 1176.031494,332.562500 1187.186523,327.453247 
z"/>
<path fill="#63BFA9" opacity="1.000000" stroke="none" 
	d="
M183.245239,162.539352 
	C181.612991,162.626709 180.165146,162.391434 178.347137,162.169342 
	C177.231079,161.825378 176.236923,161.658173 175.789017,161.072922 
	C174.740631,159.703033 173.429565,158.177963 173.295471,156.623352 
	C173.233658,155.906921 175.576736,154.620453 177.008698,154.192627 
	C195.725494,148.600784 214.482651,143.144272 233.213623,137.599548 
	C271.948181,126.133308 310.647430,114.545929 349.442932,103.290131 
	C353.200653,102.199898 357.641144,102.450531 361.575684,103.146873 
	C386.828735,107.616173 412.029053,112.383675 437.646973,117.169464 
	C433.596252,118.514542 429.209564,120.108932 424.682495,120.905319 
	C409.544708,123.568336 394.350372,125.907761 379.189545,128.441971 
	C358.323273,131.929871 337.465454,135.468124 316.608521,139.011490 
	C298.031952,142.167465 279.469543,145.407196 260.886261,148.522919 
	C241.651566,151.747879 222.386276,154.791809 203.161880,158.075958 
	C196.541870,159.206863 190.004669,160.822525 183.245239,162.539352 
z"/>
<path fill="#EAB44F" opacity="1.000000" stroke="none" 
	d="
M566.335449,314.988037 
	C542.950012,319.442230 519.943298,323.746735 496.959137,328.168457 
	C457.204651,335.816498 417.463959,343.536224 377.719666,351.237244 
	C377.071075,351.362885 376.450500,351.633270 375.438293,351.928467 
	C367.407928,353.398621 359.781403,354.952911 352.090240,356.056519 
	C349.473328,356.432007 346.475311,356.253204 344.025299,355.332703 
	C332.386780,350.960052 320.899567,346.186249 309.303650,341.696899 
	C306.873291,340.755981 304.211792,340.412079 301.212067,339.241516 
	C271.709137,327.143036 242.657654,315.579041 213.580505,304.080017 
	C211.138611,303.114288 208.524170,302.584839 205.989899,301.852722 
	C198.410568,298.666870 190.960602,295.099060 183.193283,292.468262 
	C179.699020,291.284760 178.145599,289.286713 176.921127,286.318481 
	C169.760391,268.960144 170.351913,251.789520 178.197205,234.419617 
	C181.001404,234.255463 183.705078,234.448318 186.605988,235.147980 
	C179.712738,250.038803 179.141754,264.950500 183.257950,280.217621 
	C184.435074,284.583557 186.847610,287.361053 191.478806,289.141174 
	C229.403000,303.718231 267.182434,318.671356 305.042511,333.416016 
	C318.937714,338.827545 332.931702,343.985443 346.880646,349.259003 
	C360.583740,346.706238 374.314789,344.293976 387.985077,341.576141 
	C443.964874,330.446564 499.923828,319.212006 555.898865,308.058380 
	C560.280396,307.185333 564.726990,306.638672 569.580688,305.880493 
	C571.424133,306.261841 573.098511,306.374817 574.157532,307.240540 
	C575.131531,308.036804 575.891724,309.645874 575.884155,310.891632 
	C575.879395,311.680908 574.420227,312.800842 573.395447,313.173981 
	C571.247925,313.955780 568.956543,314.342285 566.335449,314.988037 
z"/>
<path fill="#EBB44A" opacity="1.000000" stroke="none" 
	d="
M570.370605,245.203156 
	C533.207336,251.566711 496.392731,257.835510 459.568665,264.048401 
	C445.003052,266.505890 430.416473,268.838928 415.404724,271.126648 
	C424.261719,267.180481 433.502533,263.207428 442.854553,259.516083 
	C472.001648,248.011429 501.190826,236.613464 530.732056,225.150391 
	C544.178406,229.311737 557.272888,233.446472 570.315735,237.738205 
	C572.192261,238.355667 573.819946,239.729553 575.562744,240.753372 
	C573.946960,242.197601 572.331177,243.641815 570.370605,245.203156 
z"/>
<path fill="#5F86BD" opacity="1.000000" stroke="none" 
	d="
M205.623993,301.967377 
	C208.524170,302.584839 211.138611,303.114288 213.580505,304.080017 
	C242.657654,315.579041 271.709137,327.143036 300.891113,339.063538 
	C277.659576,335.705292 254.321976,331.857666 230.943405,328.277710 
	C211.643234,325.322296 192.294601,322.683502 172.548904,319.868286 
	C171.719208,319.561615 171.204178,319.372803 170.915466,319.005859 
	C169.853500,317.656250 168.866608,316.247589 167.851440,314.861176 
	C169.206741,313.911774 170.432983,312.546021 171.937973,312.079498 
	C183.013412,308.646088 194.144531,305.392365 205.623993,301.967377 
z"/>
<path fill="#DAD9D7" opacity="1.000000" stroke="none" 
	d="
M346.929443,348.807922 
	C332.931702,343.985443 318.937714,338.827545 305.042511,333.416016 
	C267.182434,318.671356 229.403000,303.718231 191.478806,289.141174 
	C186.847610,287.361053 184.435074,284.583557 183.257950,280.217621 
	C179.141754,264.950500 179.712738,250.038803 186.938721,235.316406 
	C200.610718,237.453430 214.162674,239.848267 227.675430,242.447052 
	C232.530594,243.380798 237.291260,244.805862 242.714569,246.333176 
	C263.875092,253.603516 284.421112,260.532501 304.955353,267.496216 
	C319.979828,272.591400 334.988861,277.732300 350.004761,282.852814 
	C349.324799,302.732880 348.666718,322.613770 347.930603,342.491730 
	C347.857849,344.455811 347.307129,346.402222 346.929443,348.807922 
z"/>
<path fill="#9DDBC8" opacity="1.000000" stroke="none" 
	d="
M417.964905,227.294769 
	C415.313843,216.819244 412.675842,206.807144 409.845276,196.064178 
	C426.659546,190.606644 444.281189,184.811707 461.992249,179.304398 
	C463.199371,178.929047 465.940735,180.312393 466.514343,181.551178 
	C475.170685,200.245850 477.078369,219.466522 469.985413,239.109924 
	C469.288940,241.038696 467.598053,243.329742 465.810760,244.031387 
	C448.334686,250.892120 430.740479,257.451965 413.177155,264.090332 
	C412.416138,264.377960 411.629059,264.596710 409.707886,265.218567 
	C415.171478,252.762283 418.945770,240.721085 417.964905,227.294769 
z"/>
<path fill="#EAB44B" opacity="1.000000" stroke="none" 
	d="
M350.402954,282.825012 
	C334.988861,277.732300 319.979828,272.591400 304.955353,267.496216 
	C284.421112,260.532501 263.875092,253.603516 243.102264,246.372406 
	C252.681168,247.749603 262.527405,249.229782 272.296509,251.110687 
	C312.448700,258.841522 352.577393,266.694244 393.059357,274.743530 
	C382.429047,276.991058 371.453766,278.995422 360.479370,281.004456 
	C357.252075,281.595245 354.027191,282.199280 350.402954,282.825012 
z"/>
<path fill="#EBB44A" opacity="1.000000" stroke="none" 
	d="
M414.703003,270.946808 
	C414.257355,271.319611 413.476349,271.648560 412.348755,271.956451 
	C412.790680,271.591248 413.579163,271.247101 414.703003,270.946808 
z"/>
<path fill="#FCFCFC" opacity="1.000000" stroke="none" 
	d="
M1302.342529,318.736572 
	C1295.613403,314.808014 1293.369873,309.390747 1295.332520,302.208252 
	C1295.636719,301.095093 1295.610229,299.894440 1295.878052,298.767853 
	C1296.925049,294.361877 1296.913208,289.180664 1299.346924,285.738159 
	C1304.228760,278.832825 1310.665894,273.173340 1319.208618,270.686951 
	C1327.268799,268.340942 1332.814209,270.784424 1335.055542,278.801758 
	C1338.700928,291.841583 1336.799194,304.486176 1330.087402,316.187592 
	C1326.389282,322.635254 1320.457397,325.243164 1313.114502,323.144226 
	C1309.516846,322.115784 1306.122437,320.375977 1302.342529,318.736572 
z"/>
<path fill="#FDFDFD" opacity="1.000000" stroke="none" 
	d="
M806.497925,293.795258 
	C806.607361,298.201599 806.873047,302.192505 806.784363,306.175568 
	C806.698914,310.008392 807.744080,313.905640 804.078308,317.248077 
	C798.247681,322.564392 792.684265,328.070312 784.310303,328.831970 
	C779.949463,329.228638 777.643799,326.353729 776.069519,322.828217 
	C770.919312,311.294556 769.968140,299.066742 770.783264,286.702759 
	C771.083069,282.155457 772.070129,277.432709 773.840271,273.254578 
	C776.530762,266.904114 783.090637,264.538666 789.194946,267.795288 
	C799.305908,273.189514 805.336731,281.734222 806.497925,293.795258 
z"/>
</svg>